<svg class="svg-icon" xmlns="http://www.w3.org/2000/svg" viewBox="0 0 1024 1024">
  <!-- Adapted from uploaded arrow-top-right-3.svg. Fills changed to brand color for visibility. -->
  <path d="M746.666667 725.333333a21.333333 21.333333 0 0 1-21.333334-21.333333V298.666667H320a21.333333 21.333333 0 0 1 0-42.666667h426.666667a21.333333 21.333333 0 0 1 21.333333 21.333333v426.666667a21.333333 21.333333 0 0 1-21.333333 21.333333z" fill="#0a5a70" />
  <path d="M277.333333 768a21.333333 21.333333 0 0 1-15.146666-6.186667 21.333333 21.333333 0 0 1 0-30.293333l469.333333-469.333333a21.333333 21.333333 0 0 1 30.293333 30.293333l-469.333333 469.333333A21.333333 21.333333 0 0 1 277.333333 768z" fill="#0a5a70" />
</svg>